# xmcd CD database file
#
# Track frame offsets:
#	150
#	24491
#	45714
#	70388
#	86434
#	109084
#	131354
#	152369
#	175736
#	202400
#
# Disc length: 3141 seconds
#
# Revision: 0
# Processed by: cddbd v1.4PL0 Copyright (c) Steve Scherf et al.
# Submitted via: CDex 1.50beta10
#
DISCID=800c430a
DTITLE=Various Artist - Gracias Formell
DYEAR=1998
DGENRE=Salsa
TTITLE0=La Candela (Michel Maza)
TTITLE1=La Habana Joven (Angel Bonne)
TTITLE2=Mis dudas (Mayito Rivera)
TTITLE3=Recaditos no (Haila Mompié)
TTITLE4=La Habana si (Roberto Hernández "Robertón")
TTITLE5=Titimanía - Tony Cala
TTITLE6=Tú tranquilo (Issac Delgado)
TTITLE7=De La Habana a Matanzas (Aramís Galindo)
TTITLE8=Ay mamá recíbeme (Paulo F.G.)
TTITLE9=Somos los Van Van (Todos)
EXTD=YEAR: 1998
EXTT0=
EXTT1=
EXTT2=
EXTT3=
EXTT4=
EXTT5=
EXTT6=
EXTT7=
EXTT8=
EXTT9=
PLAYORDER=
